<svg width="217" height="58" viewBox="0 0 217 58" fill="none" xmlns="http://www.w3.org/2000/svg">
<rect x="0.775391" y="18.5" width="32" height="31" rx="10" fill="#FCB321"/>
<rect x="10.7754" y="8" width="32" height="31" rx="10" fill="#F37322"/>
<path d="M79.4941 39H68.0723V35.0469H79.4941V39ZM69.6348 39H64.7285V16.25H69.6348V39ZM97.4316 39H85.416V35.0469H97.4316V39ZM86.9941 39H82.0723V16.25H86.9941V39ZM95.8691 29.2188H85.416V25.3906H95.8691V29.2188ZM97.416 20.2188H85.416V16.25H97.416V20.2188ZM103.432 39H98.1973L106.65 16.25H109.963L109.494 20.5625L103.432 39ZM108.385 20.5625L107.869 16.25H111.197L119.697 39H114.463L108.385 20.5625ZM114.307 34.4688H102.244V30.5H114.307V34.4688ZM130.307 16.25C132.067 16.25 133.577 16.5156 134.838 17.0469C136.109 17.5677 137.083 18.3385 137.76 19.3594C138.437 20.3698 138.775 21.625 138.775 23.125C138.775 24.375 138.567 25.4375 138.15 26.3125C137.744 27.1875 137.171 27.9115 136.432 28.4844C135.692 29.0573 134.822 29.5208 133.822 29.875L132.26 30.7656H124.963L124.932 26.7969H130.291C131.083 26.7969 131.744 26.6667 132.275 26.4062C132.807 26.1354 133.202 25.7552 133.463 25.2656C133.723 24.776 133.854 24.1979 133.854 23.5312C133.854 22.5104 133.562 21.7031 132.979 21.1094C132.406 20.5156 131.515 20.2188 130.307 20.2188H126.65V39H121.744V16.25H130.307ZM129.213 28.8906L134.4 28.8594L139.604 38.7656V39H134.338L129.213 28.8906ZM160.869 39H155.963L147.135 24.3594V39H142.229V16.25H147.135L155.979 30.9062V16.25H160.869V39ZM170.041 39H165.135V16.25H170.041V39ZM192.9 39H187.994L179.166 24.3594V39H174.26V16.25H179.166L188.01 30.9062V16.25H192.9V39ZM215.025 36.125C214.661 36.5521 214.104 37.0156 213.354 37.5156C212.614 38.0052 211.656 38.4271 210.479 38.7812C209.312 39.1354 207.895 39.3125 206.229 39.3125C204.26 39.3125 202.531 38.8854 201.041 38.0312C199.551 37.1667 198.39 35.9115 197.557 34.2656C196.734 32.6198 196.322 30.625 196.322 28.2812V26.9844C196.322 24.6302 196.718 22.6302 197.51 20.9844C198.312 19.3385 199.432 18.0833 200.869 17.2188C202.307 16.3542 203.984 15.9219 205.9 15.9219C207.911 15.9219 209.557 16.25 210.838 16.9062C212.119 17.5521 213.093 18.4479 213.76 19.5938C214.437 20.7396 214.854 22.0573 215.01 23.5469H210.244C210.14 22.7865 209.926 22.1354 209.604 21.5938C209.291 21.0417 208.848 20.6198 208.275 20.3281C207.702 20.026 206.958 19.875 206.041 19.875C205.031 19.875 204.171 20.1406 203.463 20.6719C202.755 21.2031 202.213 21.9948 201.838 23.0469C201.473 24.0885 201.291 25.3906 201.291 26.9531V28.2812C201.291 29.8333 201.489 31.1354 201.885 32.1875C202.281 33.2396 202.864 34.0312 203.635 34.5625C204.416 35.0938 205.38 35.3594 206.525 35.3594C207.234 35.3594 207.822 35.3021 208.291 35.1875C208.76 35.0729 209.14 34.9375 209.432 34.7812C209.723 34.6146 209.947 34.4583 210.104 34.3125V30.5312H205.979V26.9531H215.025V36.125Z" fill="white"/>
</svg>
