<svg width="17" height="16" viewBox="0 0 17 16" fill="none" xmlns="http://www.w3.org/2000/svg">
<g clip-path="url(#clip0_186_77)">
<path d="M16.8887 3.47363V3.82137C16.8665 3.89016 16.8387 3.95703 16.8221 4.02581C16.3705 5.88172 15.9196 7.73698 15.4693 9.59161C15.4391 9.76406 15.3497 9.91949 15.2174 10.0293C15.0852 10.1392 14.919 10.1961 14.7494 10.1897C14.4903 10.1992 14.233 10.2164 13.9758 10.2317C12.9592 10.2967 11.9444 10.3603 10.9315 10.4228C9.89515 10.4858 8.85695 10.5431 7.82059 10.6138C6.73982 10.6775 5.65967 10.7412 4.58013 10.8049L3.75845 10.8603C3.85621 11.1004 4.02154 11.3048 4.23303 11.4468C4.44453 11.5889 4.69245 11.6621 4.94471 11.6571C7.51894 11.6571 10.0913 11.6571 12.6637 11.6571C13.0907 11.6543 13.5085 11.7857 13.8615 12.0338C14.2146 12.2818 14.4862 12.6348 14.6405 13.0459C14.7947 13.4571 14.8243 13.9069 14.7252 14.3357C14.6262 14.7646 14.4032 15.1523 14.0858 15.4473C13.7685 15.7423 13.3717 15.9307 12.9483 15.9876C12.5248 16.0444 12.0946 15.967 11.7147 15.7656C11.3348 15.5642 11.0232 15.2484 10.8212 14.8599C10.6192 14.4715 10.5363 14.0288 10.5836 13.5907C10.6039 13.4263 10.641 13.2639 10.6687 13.1053H6.91378C7.08034 13.6027 7.06786 14.1453 6.87862 14.6339C6.69362 15.12 6.34369 15.52 5.89408 15.7593C5.52334 15.9647 5.10038 16.0473 4.68258 15.9961C4.26478 15.9448 3.87237 15.7621 3.55858 15.4727C2.63326 14.5785 2.6055 13.562 3.24582 12.4825C2.957 12.2398 2.71971 11.9382 2.54873 11.5967C2.37775 11.2552 2.27675 10.8809 2.25203 10.4973C2.19281 9.80179 2.1373 9.10821 2.07622 8.41273C1.97259 7.21091 1.86155 6.00718 1.75792 4.80537C1.66415 3.73794 1.57408 2.67051 1.48772 1.60308C1.47662 1.4827 1.4285 1.45213 1.32117 1.45404C1.10649 1.45404 0.891819 1.46551 0.677146 1.45404C0.492598 1.4505 0.316972 1.37141 0.188906 1.23417C0.0608405 1.09693 -0.00917438 0.91279 -0.00573864 0.722254C-0.00230291 0.531719 0.0743027 0.350398 0.207227 0.218177C0.340152 0.0859566 0.518507 0.0136673 0.703055 0.0172145C1.16941 0.0172145 1.63762 0.0172145 2.10398 0.0172145C2.28516 0.0175409 2.45922 0.0900463 2.58988 0.219614C2.72055 0.349183 2.79775 0.525816 2.80538 0.7127C2.84794 1.26106 2.8942 1.80752 2.94232 2.35588C2.95898 2.54695 2.98303 2.73802 3.00339 2.92909H16.117C16.2831 2.90815 16.4509 2.95003 16.5893 3.04698C16.7278 3.14393 16.8276 3.28939 16.8702 3.45643C16.8702 3.45643 16.8813 3.46407 16.8887 3.47363Z" fill="#009E5F"/>
</g>
<defs>
<clipPath id="clip0_186_77">
<rect width="16.8889" height="16" fill="white"/>
</clipPath>
</defs>
</svg>
