<svg width="18" height="16" viewBox="0 0 18 16" fill="none" xmlns="http://www.w3.org/2000/svg">
<g clip-path="url(#clip0_64_353)">
<path d="M17.8824 14.5931C17.7998 14.9 17.7049 15.1985 17.4942 15.4426C17.2244 15.755 16.8957 15.9686 16.4978 15.9811C15.7021 16.0065 14.9055 15.9931 14.1093 15.9954C14.0931 15.9954 14.077 15.9852 14.0927 15.9903C14.108 15.6502 14.1364 15.3217 14.1364 14.9927C14.1412 13.4469 14.1364 11.9011 14.1395 10.3544C14.1395 9.80073 14.1198 9.25163 13.9445 8.72191C13.9404 8.68945 13.9404 8.65655 13.9445 8.62409C14.7848 8.67669 15.6444 8.48013 16.4423 8.9171C17.2262 9.34623 17.7014 10.0158 17.8518 10.9377C17.8596 10.9662 17.8706 10.9936 17.8846 11.0194L17.8824 14.5931Z" fill="#009E5F"/>
<path d="M8.94733 15.9982H5.42254C4.96609 15.9982 4.78684 15.8113 4.78728 15.3342C4.78728 13.4862 4.78159 11.6386 4.79558 9.79105C4.80476 8.59134 5.76531 7.44792 6.88851 7.26519C7.04894 7.23692 7.21117 7.2215 7.37381 7.21905C8.47864 7.21905 9.58391 7.21028 10.6887 7.22643C11.8111 7.24304 12.8958 8.26418 13.061 9.43852C13.0882 9.62636 13.1021 9.81607 13.1026 10.0061C13.1056 11.7923 13.1026 13.5784 13.1065 15.3651C13.1065 15.581 13.0689 15.7804 12.8853 15.8911C12.7637 15.9577 12.6287 15.9922 12.4918 15.9917C11.3091 16.0009 10.1282 15.9982 8.94733 15.9982Z" fill="#009E5F"/>
<path d="M8.95276 1.83381e-05C10.6618 0.00647833 12.0605 1.47659 12.0495 3.26462C12.0386 5.07941 10.6942 6.54445 8.94795 6.54583C7.20174 6.54721 5.84595 5.07757 5.84376 3.25078C5.83939 1.46044 7.24808 -0.00598022 8.95276 1.83381e-05Z" fill="#009E5F"/>
<path d="M3.92257 8.6628C3.87054 9.04578 3.81458 9.43707 3.76474 9.82929C3.75489 9.93307 3.75138 10.0374 3.75424 10.1417C3.75424 11.7991 3.75162 13.4561 3.75424 15.1131C3.75424 15.3992 3.78572 15.6853 3.80321 15.9875C3.81108 15.9875 3.79097 15.9963 3.77086 15.9963C3.0088 15.9963 2.24674 16.0092 1.48556 15.988C0.685898 15.9663 0.0313938 15.2866 0.0156542 14.4463C-0.00489468 13.3481 -0.0105784 12.2486 0.0156542 11.1508C0.0466962 9.92619 1.07764 8.77216 2.23231 8.67157C2.80069 8.62219 3.37256 8.6628 3.92257 8.6628Z" fill="#009E5F"/>
<path d="M5.81793 5.53482C5.78733 6.96848 4.64883 7.99561 3.43077 7.94947C2.09552 7.89871 1.13104 6.74976 1.17738 5.43515C1.22679 4.03426 2.31413 2.99974 3.58729 3.0505C4.78699 3.09848 5.8363 4.16577 5.81793 5.53482Z" fill="#009E5F"/>
<path d="M14.3912 3.05054C15.0063 3.05063 15.5964 3.30713 16.0332 3.7642C16.4699 4.22127 16.718 4.84191 16.7233 5.49103C16.732 6.8324 15.6661 7.95828 14.3916 7.95413C13.1237 7.94998 12.0849 6.8467 12.0744 5.49749C12.0582 4.16488 13.1128 3.05331 14.3912 3.05054Z" fill="#009E5F"/>
</g>
<defs>
<clipPath id="clip0_64_353">
<rect width="17.8824" height="16" fill="white"/>
</clipPath>
</defs>
</svg>
