<svg width="18" height="16" viewBox="0 0 18 16" fill="none" xmlns="http://www.w3.org/2000/svg">
<g clip-path="url(#clip0_186_75)">
<path d="M17.7778 4.87799V5.85515C17.7662 5.91182 17.7507 5.96654 17.743 6.02517C17.6305 7.01322 17.2866 7.95989 16.7397 8.78663C15.9839 9.9729 15 10.9618 13.9678 11.8881C12.5413 13.1623 11.0935 14.4131 9.65338 15.6717C9.15466 16.1095 8.62695 16.1114 8.12631 15.6717C6.79061 14.4991 5.45104 13.3421 4.12114 12.1695C3.18278 11.3701 2.32252 10.4813 1.55218 9.51559C0.794447 8.53843 0.218413 7.46746 0.0599072 6.21084C-0.152723 4.53012 0.191351 2.98621 1.30862 1.69636C2.5786 0.228669 4.20812 -0.275545 6.0812 0.144633C7.0477 0.359608 7.8209 0.916589 8.47232 1.6475C8.61536 1.80776 8.74487 1.97583 8.88791 2.14781C9.03868 1.9641 9.17593 1.7843 9.32863 1.62014C10.5329 0.306839 12.0039 -0.240369 13.7591 0.093819C15.7327 0.471002 17.1495 2.02273 17.6019 3.93601C17.6773 4.2487 17.7198 4.56725 17.7778 4.87799Z" fill="#575757"/>
</g>
<defs>
<clipPath id="clip0_186_75">
<rect width="17.7778" height="16" fill="white"/>
</clipPath>
</defs>
</svg>
