<svg width="23" height="22" viewBox="0 0 23 22" fill="none" xmlns="http://www.w3.org/2000/svg">
<rect width="23" height="22" rx="3" fill="#009E5F"/>
<path d="M12.0016 7.41058C10.0152 7.41058 8.41294 9.01317 8.41294 11C8.41294 12.9868 10.0152 14.5894 12.0016 14.5894C13.988 14.5894 15.5902 12.9868 15.5902 11C15.5902 9.01317 13.988 7.41058 12.0016 7.41058ZM12.0016 13.3336C10.7179 13.3336 9.66849 12.2871 9.66849 11C9.66849 9.71293 10.7148 8.66641 12.0016 8.66641C13.2883 8.66641 14.3346 9.71293 14.3346 11C14.3346 12.2871 13.2852 13.3336 12.0016 13.3336V13.3336ZM16.574 7.26375C16.574 7.72922 16.1992 8.10097 15.737 8.10097C15.2716 8.10097 14.8999 7.7261 14.8999 7.26375C14.8999 6.80141 15.2747 6.42653 15.737 6.42653C16.1992 6.42653 16.574 6.80141 16.574 7.26375ZM18.9508 8.11347C18.8977 6.99197 18.6416 5.99855 17.8202 5.18007C17.0019 4.3616 16.0087 4.10543 14.8875 4.0492C13.7318 3.9836 10.2682 3.9836 9.11255 4.0492C7.99442 4.10231 7.00123 4.35847 6.17981 5.17695C5.35839 5.99543 5.10541 6.98884 5.04919 8.11034C4.9836 9.26621 4.9836 12.7307 5.04919 13.8865C5.10229 15.008 5.35839 16.0015 6.17981 16.8199C7.00123 17.6384 7.9913 17.8946 9.11255 17.9508C10.2682 18.0164 13.7318 18.0164 14.8875 17.9508C16.0087 17.8977 17.0019 17.6415 17.8202 16.8199C18.6385 16.0015 18.8946 15.008 18.9508 13.8865C19.0164 12.7307 19.0164 9.26933 18.9508 8.11347V8.11347ZM17.4579 15.1267C17.2143 15.739 16.7427 16.2108 16.1274 16.4575C15.206 16.8231 13.0197 16.7387 12.0016 16.7387C10.9834 16.7387 8.79398 16.8199 7.87574 16.4575C7.26358 16.2139 6.79197 15.7422 6.54523 15.1267C6.17981 14.2052 6.26414 12.0184 6.26414 11C6.26414 9.98159 6.18293 7.7917 6.54523 6.87326C6.78885 6.26096 7.26046 5.78924 7.87574 5.54245C8.7971 5.17695 10.9834 5.2613 12.0016 5.2613C13.0197 5.2613 15.2091 5.18007 16.1274 5.54245C16.7395 5.78612 17.2112 6.25784 17.4579 6.87326C17.8233 7.79482 17.739 9.98159 17.739 11C17.739 12.0184 17.8233 14.2083 17.4579 15.1267Z" fill="white"/>
</svg>
