<svg width="14" height="16" viewBox="0 0 14 16" fill="none" xmlns="http://www.w3.org/2000/svg">
<g clip-path="url(#clip0_63_349)">
<path d="M7.15998 0C7.46261 0.208028 7.77493 0.40393 8.06476 0.627873C8.35458 0.851816 8.65876 0.933285 9.01726 0.848406C9.2807 0.785884 9.5453 0.725256 9.81262 0.686227C10.1975 0.630147 10.4194 0.749507 10.582 1.09584C10.6847 1.31838 10.7754 1.54605 10.8536 1.7779C10.9785 2.14205 11.2206 2.36902 11.5997 2.48042C11.8896 2.56446 12.1727 2.66946 12.4466 2.79455C12.7295 2.9249 12.802 3.18446 12.7679 3.46714C12.7408 3.69923 12.6977 3.92925 12.6387 4.15564C12.5339 4.54972 12.6162 4.8915 12.875 5.20677C13.055 5.42578 13.2199 5.65655 13.3836 5.88883C13.6005 6.19424 13.5951 6.50003 13.36 6.79559C13.2257 6.96383 13.0965 7.13662 12.9471 7.29197C12.6368 7.61368 12.5572 7.9782 12.6732 8.40032C12.7276 8.61221 12.7674 8.82741 12.7923 9.04449C12.8424 9.42341 12.7019 9.65986 12.3411 9.81294C12.1716 9.88494 11.9919 9.93798 11.8045 10.0051C11.8325 10.0566 11.8573 10.1051 11.8852 10.1521C12.5461 11.2621 13.2071 12.3719 13.8682 13.4817C14.1119 13.8905 14.0203 14.0572 13.5314 14.0845C13.074 14.1095 12.6146 14.1118 12.1591 14.1542C11.8263 14.1853 11.5605 14.3615 11.3777 14.6404C11.1426 14.9996 10.9122 15.3604 10.6794 15.7226C10.6441 15.7807 10.6029 15.8352 10.5564 15.8852C10.4303 16.0132 10.2576 16.0113 10.1362 15.8787C10.0857 15.8185 10.0414 15.7535 10.0039 15.6847C9.33139 14.557 8.65889 13.4292 7.98638 12.3013C7.95185 12.2437 7.91383 12.1876 7.86727 12.1153C7.79666 12.1668 7.73458 12.2123 7.67328 12.2574C7.46261 12.4089 7.2465 12.5863 6.96793 12.5249C6.75669 12.477 6.55626 12.3916 6.37664 12.2729C6.09225 12.0834 6.13493 12.102 5.97896 12.3642C5.32352 13.4654 4.67003 14.5675 4.01848 15.6707C3.99481 15.7112 3.97153 15.7522 3.94592 15.792C3.76939 16.0689 3.5432 16.0765 3.36162 15.8037C3.11836 15.4373 2.88556 15.0644 2.64463 14.6961C2.41533 14.346 2.08554 14.1694 1.65954 14.1554C1.23353 14.1414 0.79705 14.122 0.366 14.0989C0.00944329 14.0804 -0.0953121 13.8917 0.0839362 13.5866C0.578227 12.7459 1.07446 11.9075 1.57263 11.0713C1.7511 10.7701 1.93074 10.4689 2.10882 10.1672C2.20233 10.0088 2.19263 9.99634 2.01027 9.93192C1.84985 9.87855 1.69271 9.81617 1.53965 9.74511C1.23353 9.59582 1.14934 9.33133 1.19357 9.02516C1.23237 8.75802 1.28785 8.49467 1.34876 8.22943C1.42015 7.9081 1.32898 7.63452 1.12102 7.38746C0.955347 7.19042 0.789678 6.99338 0.628277 6.79331C0.38152 6.48752 0.388115 6.16885 0.607326 5.85662C0.762519 5.63836 0.92586 5.42654 1.10045 5.22382C1.35497 4.92826 1.44653 4.60655 1.35031 4.22498C1.28631 3.96301 1.24017 3.69718 1.21219 3.42924C1.17572 3.10185 1.34799 2.87981 1.64751 2.75779C1.88276 2.66181 2.12344 2.57907 2.36838 2.50998C2.75404 2.40236 3.00312 2.16895 3.12728 1.79912C3.18509 1.62671 3.25027 1.45809 3.31855 1.2872C3.53893 0.741171 3.80198 0.608169 4.38939 0.739276C4.63265 0.793462 4.87708 0.84348 5.12113 0.894634C5.32133 0.936316 5.48855 0.883267 5.65654 0.763527C5.9906 0.524807 6.33978 0.306927 6.68548 0.0844994C6.74574 0.0524757 6.80885 0.0258423 6.87403 0.00492559L7.15998 0ZM6.98965 10.9425C9.58914 10.9618 11.8367 8.85465 11.7743 6.14384C11.7172 3.67365 9.68924 1.60246 7.03621 1.59223C4.33003 1.58162 2.24229 3.6763 2.20931 6.19424C2.174 8.89102 4.37193 10.9577 6.98965 10.9425Z" fill="#009E5F"/>
<path d="M6.99289 10.218C4.85898 10.2529 2.97726 8.46815 2.9373 6.38293C2.89385 4.13023 4.67702 2.40423 6.79346 2.31481C9.0651 2.21894 11.0675 3.96085 11.0469 6.3314C11.0346 7.37109 10.6012 8.36371 9.84145 9.09209C9.0817 9.82047 8.05748 10.2253 6.99289 10.218ZM5.33581 8.38857C5.33077 8.6451 5.45764 8.74021 5.66172 8.64851C5.91779 8.53484 6.16609 8.40373 6.41324 8.26959C6.81907 8.04906 7.21986 8.04565 7.62646 8.26656C7.85925 8.39287 8.09515 8.51299 8.33414 8.62692C8.59332 8.75044 8.73338 8.65912 8.69962 8.38213C8.66587 8.10514 8.61582 7.82739 8.56422 7.55153C8.48662 7.13244 8.61465 6.78459 8.92543 6.49358C9.11399 6.31675 9.301 6.13865 9.48645 5.95929C9.57103 5.87783 9.68044 5.77665 9.61177 5.66639C9.5625 5.58492 9.43485 5.52505 9.33126 5.50345C9.09265 5.45305 8.84822 5.42766 8.60573 5.39887C8.13511 5.34127 7.79523 5.11392 7.59698 4.68535C7.49694 4.46153 7.38425 4.24332 7.25943 4.03171C7.20589 3.94266 7.10075 3.83505 7.01267 3.82936C6.93857 3.82482 6.83149 3.94304 6.77988 4.02868C6.64642 4.25906 6.53623 4.50195 6.41596 4.73954C6.2336 5.10027 5.943 5.31891 5.53252 5.37878C5.26093 5.41857 4.98313 5.44775 4.7131 5.50307C4.60912 5.52429 4.46479 5.58719 4.43685 5.66449C4.40892 5.74179 4.48729 5.87707 4.55752 5.95323C4.73909 6.14989 4.94162 6.32799 5.13678 6.5129C5.4491 6.80846 5.55231 7.16541 5.47471 7.57957C5.42505 7.86073 5.37849 8.14303 5.33581 8.38857Z" fill="#009E5F"/>
</g>
<defs>
<clipPath id="clip0_63_349">
<rect width="14" height="16" fill="white"/>
</clipPath>
</defs>
</svg>
