<svg width="16" height="16" viewBox="0 0 16 16" fill="none" xmlns="http://www.w3.org/2000/svg">
<path d="M8.53361 15.9999H7.47226C7.27761 15.9756 7.08212 15.9546 6.88747 15.9261C5.56182 15.7328 4.34819 15.2551 3.27425 14.4529C1.514 13.1388 0.453767 11.3955 0.0935499 9.22283C0.0562138 8.99301 0.0310435 8.76152 0 8.53003V7.46733C0.0130251 7.4228 0.0228387 7.37739 0.0293654 7.33145C0.0835103 6.57867 0.251985 5.83852 0.528998 5.13644C1.9054 1.63508 5.34536 -0.411469 9.07562 0.0691343C10.6429 0.271273 12.042 0.891528 13.2233 1.9429C15.3703 3.85315 16.2689 6.25617 15.9304 9.10583C15.786 10.3045 15.35 11.4495 14.6605 12.4407C13.3391 14.3665 11.523 15.529 9.21279 15.9068C8.98794 15.945 8.7614 15.9697 8.53361 15.9999ZM5.71998 7.9861C5.71998 8.74097 5.71788 9.49585 5.71998 10.2507C5.71998 10.6391 6.00398 10.894 6.37651 10.842C6.46304 10.8256 6.54644 10.7956 6.6236 10.7531C8.08852 10.0234 9.55301 9.29259 11.0171 8.56064C11.2491 8.44447 11.4244 8.28511 11.4265 8.00371C11.4265 7.7156 11.2554 7.55498 11.0142 7.43504C9.54364 6.70393 8.07425 5.97086 6.60598 5.23584C6.13445 5.00099 5.7204 5.25848 5.71956 5.78102C5.719 6.51689 5.71914 7.25191 5.71998 7.9861Z" fill="#009E5F"/>
</svg>
