<svg width="21" height="16" viewBox="0 0 21 16" fill="none" xmlns="http://www.w3.org/2000/svg">
<g clip-path="url(#clip0_65_370)">
<path d="M10.1325 4.74841C10.2033 4.75948 10.2128 4.82746 10.2429 4.87277C10.8468 5.79495 11.4484 6.718 12.0477 7.64194C12.0781 7.6945 12.1189 7.7403 12.1677 7.77655C12.2165 7.8128 12.2721 7.83872 12.3313 7.85272C13.3956 8.12884 14.4573 8.4134 15.5205 8.69585C15.7529 8.7575 15.7519 8.75592 15.5929 8.95142C14.8999 9.80263 14.2066 10.6535 13.5129 11.504C13.4785 11.5427 13.4522 11.5878 13.4355 11.6368C13.4188 11.6857 13.4121 11.7375 13.4157 11.7891C13.4682 12.6926 13.5168 13.5967 13.5615 14.5013C13.5747 14.768 13.5615 15.0357 13.5615 15.3176L10.1325 14.0065C10.0585 13.9327 10.068 13.8368 10.068 13.7467C10.068 10.8492 10.068 7.95091 10.068 5.05194C10.0632 4.94694 10.0854 4.84244 10.1325 4.74841Z" fill="#009E5F"/>
<path d="M10.1326 4.74841V14.0065C9.04504 14.4202 7.95591 14.8302 6.87207 15.2528C6.69724 15.3208 6.66872 15.296 6.67875 15.1163C6.74055 14.0281 6.7902 12.9394 6.85094 11.8492C6.85739 11.7785 6.84934 11.7072 6.82727 11.6397C6.8052 11.5722 6.76959 11.5099 6.72259 11.4566C6.02855 10.6134 5.34191 9.76505 4.65315 8.91823C4.61723 8.87396 4.58554 8.82653 4.53906 8.76383C5.06725 8.62102 5.58171 8.4819 6.09511 8.34226C6.71168 8.17785 7.3279 8.01502 7.94377 7.85377C7.99734 7.84167 8.0479 7.81886 8.09239 7.7867C8.13687 7.75455 8.17436 7.71373 8.20258 7.6667C8.79732 6.74488 9.39593 5.82587 9.99842 4.90966C10.0407 4.85591 10.0613 4.78161 10.1326 4.74841Z" fill="#009E5F"/>
<path d="M2.93409 15.9979C2.71542 15.6079 2.47351 15.2517 2.30818 14.8628C2.09691 14.3622 1.75094 14.084 1.22276 13.9628C0.816051 13.869 0.426776 13.6993 0 13.5549C0.272017 13.2614 0.528188 12.9842 0.785944 12.706C0.9856 12.4883 1.25762 12.2992 1.36114 12.0425C1.46467 11.7859 1.40392 11.4629 1.40762 11.1657C1.41185 10.7926 1.40762 10.4195 1.40762 10.0127C1.74302 10.166 2.0462 10.3041 2.34833 10.4432C2.60503 10.5607 2.86331 10.6761 3.11684 10.801C3.16825 10.8287 3.22494 10.8452 3.2832 10.8495C3.34146 10.8538 3.39997 10.8457 3.45488 10.8258C3.96141 10.6619 4.47164 10.5096 4.98082 10.3515C5.24491 10.2704 5.24491 10.2714 5.21322 10.5391C5.14667 11.0793 5.08593 11.6199 5.01304 12.1595C5.00573 12.2071 5.00844 12.2556 5.02099 12.3021C5.03354 12.3485 5.05565 12.3919 5.08593 12.4293C5.44457 12.932 5.79845 13.4374 6.17294 13.9686C5.83701 14.036 5.52063 14.1014 5.20318 14.163C4.90599 14.2213 4.60862 14.2777 4.31107 14.3322C4.26294 14.3398 4.21685 14.357 4.17555 14.3828C4.13425 14.4086 4.0986 14.4425 4.07075 14.4823C3.70102 14.9866 3.32442 15.482 2.93409 15.9979Z" fill="#009E5F"/>
<path d="M18.8752 10.0048C18.8752 10.6656 18.8752 11.2821 18.8752 11.8986C18.8727 11.9502 18.8811 12.0017 18.8999 12.0498C18.9186 12.0979 18.9472 12.1416 18.984 12.1779C19.3775 12.5937 19.762 13.0211 20.1581 13.4316C20.2669 13.5449 20.2347 13.5754 20.1085 13.6176C19.565 13.7978 19.0252 13.9864 18.4817 14.1656C18.432 14.18 18.3858 14.2044 18.3461 14.2374C18.3064 14.2704 18.274 14.3113 18.2508 14.3574C17.9498 14.897 17.6487 15.434 17.3318 15.9978C17.2415 15.8782 17.1649 15.777 17.0888 15.6753C16.7957 15.287 16.4994 14.9012 16.212 14.5081C16.1793 14.46 16.1369 14.4191 16.0875 14.3881C16.0382 14.3571 15.9829 14.3366 15.9252 14.3279C15.3236 14.2146 14.7236 14.0945 14.0908 13.9706L14.3914 13.5454C14.6555 13.1691 14.9195 12.7918 15.1889 12.4182C15.2163 12.3824 15.236 12.3413 15.2467 12.2975C15.2575 12.2537 15.259 12.2081 15.2513 12.1637C15.1778 11.6109 15.1129 11.0571 15.0474 10.5033C15.021 10.2777 15.0247 10.2761 15.2433 10.3452C15.7715 10.5033 16.2997 10.6613 16.8279 10.8316C16.8767 10.8492 16.9286 10.8566 16.9803 10.8534C17.0321 10.8503 17.0827 10.8365 17.129 10.8131C17.6888 10.5507 18.2498 10.2935 18.8752 10.0048Z" fill="#009E5F"/>
<path d="M14.1897 6.24291C14.1617 6.22025 14.1369 6.20128 14.112 6.17915C13.8844 5.95993 13.6604 5.73703 13.4291 5.52204C13.3493 5.44826 13.3615 5.40558 13.4317 5.33497C14.1198 4.645 14.8064 3.95258 15.4917 3.2577C15.5772 3.17022 15.6279 3.1697 15.7114 3.2577C15.9163 3.47164 16.1276 3.67997 16.3452 3.88267C16.4281 3.96066 16.4229 4.00598 16.3452 4.08397C15.6579 4.76866 14.9746 5.45529 14.2953 6.14384C14.2631 6.17757 14.2282 6.20761 14.1897 6.24291Z" fill="#009E5F"/>
<path d="M4.67633 3.17175C4.71595 3.20653 4.75133 3.23446 4.78197 3.26661C5.4533 3.93532 6.12251 4.60666 6.79648 5.27273C6.89261 5.36811 6.90212 5.43451 6.79648 5.53094C6.58045 5.73329 6.37393 5.94355 6.16265 6.15644C6.09293 6.22863 6.04962 6.2339 5.97567 6.15644C5.29009 5.45629 4.60238 4.75789 3.91257 4.06126C3.87243 4.02068 3.81591 3.9859 3.8851 3.91898C4.1249 3.68449 4.36047 3.44472 4.60133 3.21075C4.62483 3.19506 4.64998 3.18198 4.67633 3.17175Z" fill="#009E5F"/>
<path d="M10.1325 0.0547569C10.7109 -0.056431 10.7283 -0.04273 10.7283 0.525857C10.7283 1.3047 10.7236 2.08407 10.7325 2.86291C10.7325 3.021 10.6845 3.06948 10.5329 3.05525C10.4024 3.04313 10.2688 3.04998 10.1383 3.04893C10.066 2.97568 10.0718 2.88135 10.0712 2.79019C10.0712 1.96533 10.0712 1.13976 10.0712 0.313491C10.0691 0.224963 10.0649 0.131166 10.1325 0.0547569Z" fill="#009E5F"/>
<path d="M10.1327 0.0547624C10.1348 1.05282 10.1367 2.05088 10.1385 3.04893C9.94939 3.04893 9.70801 3.12956 9.58442 3.01784C9.46082 2.90613 9.54427 2.65846 9.54269 2.47139C9.53741 1.73365 9.54533 0.990111 9.53688 0.24921C9.53688 0.0911225 9.5823 0.0384273 9.73812 0.0521282C9.86858 0.0637213 9.99904 0.0547624 10.1327 0.0547624Z" fill="#009E5F"/>
</g>
<defs>
<clipPath id="clip0_65_370">
<rect width="20.2222" height="16" fill="white"/>
</clipPath>
</defs>
</svg>
