<svg width="16" height="16" viewBox="0 0 16 16" fill="none" xmlns="http://www.w3.org/2000/svg">
<g clip-path="url(#clip0_186_73)">
<path d="M11.8958 16.0017C11.6753 15.9424 11.4495 15.9022 11.236 15.8271C10.663 15.6196 10.1736 15.2313 9.84191 14.721C9.51025 14.2107 9.3545 13.6064 9.39831 12.9998C9.41626 12.8224 9.45023 12.6471 9.49981 12.4759C9.52081 12.3955 9.51207 12.3536 9.43681 12.3152C8.02152 11.5957 6.60798 10.8739 5.19619 10.1497C5.10168 10.1008 5.06843 10.1497 5.02117 10.2074C4.74038 10.563 4.37752 10.8455 3.96358 11.0309C3.54964 11.2163 3.09689 11.299 2.64398 11.2719C2.19107 11.2449 1.75144 11.1089 1.36261 10.8756C0.973779 10.6423 0.64729 10.3185 0.411003 9.93205C0.174715 9.54556 0.0356455 9.10776 0.00566059 8.65602C-0.0243243 8.20428 0.0556679 7.752 0.238808 7.33779C0.421947 6.92358 0.702799 6.55973 1.0574 6.27728C1.41199 5.99484 1.82981 5.80219 2.27519 5.71578C2.72142 5.61999 3.1847 5.63863 3.62175 5.76995C4.05881 5.90127 4.45537 6.14099 4.7744 6.46671C4.81641 6.50513 4.85491 6.54878 4.89516 6.58895C4.90904 6.5988 4.92367 6.60756 4.93892 6.61514L9.58207 3.82099C9.44589 3.46528 9.38336 3.08571 9.39825 2.70522C9.41314 2.32472 9.50515 1.95118 9.66871 1.60714C9.83227 1.2631 10.064 0.955702 10.3499 0.703492C10.6358 0.451282 10.97 0.259494 11.3322 0.139704C11.8173 -0.0182995 12.3362 -0.0419143 12.8337 0.0713755C13.3311 0.184665 13.7884 0.43061 14.1567 0.782959C14.525 1.13531 14.7906 1.58084 14.9249 2.072C15.0593 2.56315 15.0575 3.0815 14.9197 3.57172C14.782 4.06194 14.5134 4.50563 14.1426 4.85543C13.7719 5.20523 13.3129 5.44802 12.8147 5.55788C12.3165 5.66773 11.7977 5.64054 11.3137 5.4792C10.8298 5.31786 10.3988 5.02842 10.0669 4.64178L9.9531 4.70639C8.48764 5.58655 7.02277 6.46496 5.55847 7.34162C5.46396 7.39925 5.43246 7.4464 5.47446 7.56166C5.66084 8.05147 5.68718 8.58755 5.54972 9.0932C5.53572 9.1421 5.53047 9.19275 5.51822 9.25212C5.56022 9.27482 5.59872 9.29928 5.63898 9.32023C7.03035 10.031 8.42172 10.7383 9.80959 11.4543C9.8282 11.4685 9.84966 11.4785 9.87251 11.4837C9.89536 11.4889 9.91907 11.489 9.942 11.4842C9.96493 11.4794 9.98655 11.4697 10.0054 11.4558C10.0242 11.4419 10.0398 11.4241 10.0511 11.4036C10.8054 10.5409 11.7523 10.1812 12.8706 10.4658C14.024 10.7487 14.7328 11.5136 14.9708 12.6732C15.0413 13.0445 15.0359 13.4262 14.9548 13.7954C14.8737 14.1646 14.7187 14.5136 14.4989 14.8214C14.2792 15.1292 13.9994 15.3895 13.6762 15.5867C13.3531 15.7838 12.9933 15.9137 12.6186 15.9686C12.5837 15.9761 12.5497 15.9873 12.5171 16.0017H11.8958Z" fill="#FCB321"/>
</g>
<defs>
<clipPath id="clip0_186_73">
<rect width="15.0303" height="16" fill="white"/>
</clipPath>
</defs>
</svg>
