<svg width="19" height="17" viewBox="0 0 19 17" fill="none" xmlns="http://www.w3.org/2000/svg">
<path d="M14.7704 15.7696C14.8531 16.2946 14.5291 16.5206 14.0659 16.2922L10.2487 14.3229C9.9826 14.2065 9.69583 14.1461 9.40584 14.1452C9.11585 14.1443 8.82871 14.2029 8.5619 14.3176L4.70446 16.2205C4.25395 16.446 3.93136 16.2181 4.01733 15.6935L4.67718 11.4403C4.70726 11.1503 4.67833 10.8572 4.59218 10.5789C4.50603 10.3006 4.36448 10.0429 4.17618 9.82177L1.19187 6.69196C0.82755 6.32204 0.955254 5.93947 1.46151 5.87012L5.68066 5.17406C5.96895 5.11732 6.24268 5.0016 6.48495 4.83403C6.72723 4.66646 6.93293 4.4506 7.08936 4.19974L9.09731 0.376269C9.33772 -0.0910595 9.73131 -0.0898336 9.96881 0.378983L11.9247 4.22898C12.0774 4.48552 12.2806 4.70768 12.5219 4.88167C12.7632 5.05565 13.0373 5.17776 13.3273 5.24042L17.5419 5.97694C18.0477 6.07781 18.173 6.44699 17.8064 6.81463L14.7747 9.88315C14.5804 10.1006 14.4333 10.3566 14.3428 10.6348C14.2524 10.913 14.2206 11.2072 14.2496 11.4985L14.7704 15.7696Z" fill="#009E5F"/>
</svg>
