<svg width="25" height="25" viewBox="0 0 25 25" fill="none" xmlns="http://www.w3.org/2000/svg">
<path d="M18.5709 22.9093C18.6129 23.623 18.1497 23.883 17.5596 23.5168L12.7075 20.3814C12.3666 20.1909 11.9906 20.0724 11.6026 20.0333C11.2145 19.9941 10.8225 20.0351 10.4504 20.1537L5.03806 22.1962C4.40551 22.4392 4.00353 22.0919 4.18722 21.401L5.62681 15.7942C5.705 15.4099 5.70463 15.0137 5.62572 14.6299C5.54681 14.2461 5.39103 13.8828 5.16791 13.5621L1.58264 8.98229C1.14336 8.43947 1.36434 7.94408 2.05106 7.91748L7.7897 7.53765C8.18301 7.49942 8.56454 7.38033 8.91076 7.18771C9.25698 6.9951 9.56056 6.73306 9.80277 6.41773L12.9906 1.56245C13.3736 0.968353 13.9003 1.02148 14.1569 1.68008L16.2714 7.08937C16.4422 7.45274 16.6852 7.77669 16.9853 8.04114C17.2855 8.30559 17.6365 8.5049 18.0164 8.6267L23.5617 10.1639C24.2254 10.3651 24.345 10.8756 23.8061 11.3198L19.3466 15.0306C19.058 15.2962 18.8276 15.6197 18.6702 15.9802C18.5128 16.3408 18.4318 16.7304 18.4324 17.1242L18.5709 22.9093Z" fill="url(#paint0_radial_70_504)"/>
<path d="M9.31445 14H8.39453V9.73438H9.31445V14ZM10.6094 10.4785H7.11719V9.73438H10.6094V10.4785ZM10.5596 12.3857C10.5596 12.0771 10.6182 11.8018 10.7354 11.5596C10.8525 11.3154 11.0234 11.123 11.248 10.9824C11.4727 10.8418 11.7451 10.7715 12.0654 10.7715C12.3896 10.7715 12.6641 10.8418 12.8887 10.9824C13.1152 11.123 13.2861 11.3154 13.4014 11.5596C13.5186 11.8018 13.5771 12.0771 13.5771 12.3857V12.4473C13.5771 12.7539 13.5186 13.0293 13.4014 13.2734C13.2861 13.5176 13.1162 13.71 12.8916 13.8506C12.667 13.9893 12.3936 14.0586 12.0713 14.0586C11.749 14.0586 11.4746 13.9893 11.248 13.8506C11.0234 13.71 10.8525 13.5176 10.7354 13.2734C10.6182 13.0293 10.5596 12.7539 10.5596 12.4473V12.3857ZM11.4473 12.4473C11.4473 12.6133 11.4668 12.7646 11.5059 12.9014C11.5469 13.0381 11.6123 13.1465 11.7021 13.2266C11.7939 13.3066 11.917 13.3467 12.0713 13.3467C12.2236 13.3467 12.3447 13.3066 12.4346 13.2266C12.5264 13.1465 12.5918 13.0381 12.6309 12.9014C12.6719 12.7646 12.6924 12.6133 12.6924 12.4473V12.3857C12.6924 12.2236 12.6719 12.0742 12.6309 11.9375C12.5918 11.7988 12.5264 11.6885 12.4346 11.6064C12.3447 11.5244 12.2217 11.4834 12.0654 11.4834C11.9131 11.4834 11.791 11.5244 11.6992 11.6064C11.6094 11.6885 11.5449 11.7988 11.5059 11.9375C11.4668 12.0742 11.4473 12.2236 11.4473 12.3857V12.4473ZM14.9688 15.2188H14.084V10.8301H14.9043L14.9688 11.4395V15.2188ZM16.9609 12.4414C16.9609 12.748 16.9131 13.0234 16.8174 13.2676C16.7236 13.5117 16.585 13.7051 16.4014 13.8477C16.2197 13.9883 15.9951 14.0586 15.7275 14.0586C15.4678 14.0586 15.2539 13.9883 15.0859 13.8477C14.9199 13.7051 14.791 13.5137 14.6992 13.2734C14.6074 13.0332 14.541 12.7676 14.5 12.4766V12.3857C14.5391 12.0752 14.6045 11.7988 14.6963 11.5566C14.79 11.3125 14.9199 11.1211 15.0859 10.9824C15.2539 10.8418 15.4668 10.7715 15.7246 10.7715C15.9922 10.7715 16.2178 10.8389 16.4014 10.9736C16.585 11.1064 16.7236 11.2939 16.8174 11.5361C16.9131 11.7764 16.9609 12.0576 16.9609 12.3799V12.4414ZM16.0762 12.3799C16.0762 12.208 16.0566 12.0557 16.0176 11.9229C15.9805 11.7881 15.9189 11.6826 15.833 11.6064C15.7471 11.5283 15.6328 11.4893 15.4902 11.4893C15.3809 11.4893 15.2871 11.5068 15.209 11.542C15.1328 11.5752 15.0693 11.625 15.0186 11.6914C14.9697 11.7578 14.9326 11.8398 14.9072 11.9375C14.8838 12.0332 14.8701 12.1445 14.8662 12.2715V12.5938C14.874 12.7383 14.8984 12.8672 14.9395 12.9805C14.9824 13.0938 15.0488 13.1836 15.1387 13.25C15.2285 13.3145 15.3477 13.3467 15.4961 13.3467C15.6406 13.3467 15.7549 13.3057 15.8389 13.2236C15.9229 13.1416 15.9834 13.0322 16.0205 12.8955C16.0576 12.7568 16.0762 12.6055 16.0762 12.4414V12.3799Z" fill="white"/>
<defs>
<radialGradient id="paint0_radial_70_504" cx="0" cy="0" r="1" gradientUnits="userSpaceOnUse" gradientTransform="translate(3.82782 22.5151) rotate(5.75977) scale(23.8583 24.0747)">
<stop offset="0.35" stop-color="#FFC200"/>
<stop offset="0.51" stop-color="#FFBD07"/>
<stop offset="0.72" stop-color="#FFAF19"/>
<stop offset="0.98" stop-color="#FF9737"/>
<stop offset="1" stop-color="#FF953A"/>
</radialGradient>
</defs>
</svg>
