<svg width="50" height="49" viewBox="0 0 50 49" fill="none" xmlns="http://www.w3.org/2000/svg">
<path d="M37.4854 46.6582C37.5753 48.1845 36.5845 48.7407 35.3224 47.9573L24.945 41.2514C24.2157 40.8439 23.4117 40.5906 22.5817 40.5069C21.7517 40.4232 20.9133 40.5108 20.1174 40.7645L8.54156 45.133C7.18869 45.6526 6.32893 44.9098 6.72181 43.4321L9.80079 31.4403C9.96802 30.6184 9.96722 29.7711 9.79845 28.9503C9.62968 28.1294 9.2965 27.3522 8.8193 26.6664L1.15115 16.8711C0.211633 15.7102 0.684268 14.6506 2.15302 14.5937L14.4267 13.7813C15.268 13.6996 16.084 13.4449 16.8245 13.0329C17.565 12.621 18.2142 12.0605 18.7323 11.3861L25.5505 1.00166C26.3695 -0.268985 27.496 -0.155363 28.0448 1.25325L32.5673 12.8226C32.9325 13.5997 33.4523 14.2926 34.0943 14.8582C34.7363 15.4238 35.4869 15.8501 36.2996 16.1106L48.1597 19.3983C49.5793 19.8286 49.8349 20.9206 48.6825 21.8705L39.1445 29.8072C38.5274 30.3753 38.0346 31.0671 37.6979 31.8383C37.3611 32.6094 37.1879 33.4428 37.1892 34.2849L37.4854 46.6582Z" fill="url(#paint0_radial_62_337)"/>
<defs>
<radialGradient id="paint0_radial_62_337" cx="0" cy="0" r="1" gradientUnits="userSpaceOnUse" gradientTransform="translate(5.95313 45.815) rotate(5.75977) scale(51.0278 51.4908)">
<stop offset="0.35" stop-color="#FFC200"/>
<stop offset="0.51" stop-color="#FFBD07"/>
<stop offset="0.72" stop-color="#FFAF19"/>
<stop offset="0.98" stop-color="#FF9737"/>
<stop offset="1" stop-color="#FF953A"/>
</radialGradient>
</defs>
</svg>
