<svg width="41" height="25" viewBox="0 0 41 25" fill="none" xmlns="http://www.w3.org/2000/svg">
<rect width="41" height="25" rx="12.5" fill="#F5F4F4"/>
<path d="M24.1133 12.2098H23.5665V10.5352C23.5665 8.58619 22.0127 7 20.1034 7C18.1942 7 16.6404 8.58619 16.6404 10.5352V12.2098H16.0936C15.4898 12.2098 15 12.7098 15 13.3261V17.7917C15 18.408 15.4898 18.908 16.0936 18.908H24.1133C24.7171 18.908 25.2069 18.408 25.2069 17.7917V13.3261C25.2069 12.7098 24.7171 12.2098 24.1133 12.2098ZM21.7438 12.2098H18.4631V10.5352C18.4631 9.61186 19.199 8.86063 20.1034 8.86063C21.0079 8.86063 21.7438 9.61186 21.7438 10.5352V12.2098Z" fill="#009E5F"/>
</svg>
