<svg width="95" height="90" viewBox="0 0 95 90" fill="none" xmlns="http://www.w3.org/2000/svg">
<g clip-path="url(#clip0_302_418)">
<path d="M84.9396 54.8935L19.9522 72.1231C18.3974 72.5353 16.7402 72.3046 15.3453 71.4816C13.9504 70.6587 12.9321 69.3109 12.5142 67.7348L1.77472 27.2272C1.35687 25.6511 1.57377 23.9758 2.37774 22.5699C3.18171 21.164 4.50688 20.1425 6.06171 19.7303L71.0491 2.50072C72.6038 2.09288 74.2589 2.32555 75.6527 3.14787C77.0465 3.97018 78.0656 5.31525 78.4871 6.88901L89.2266 47.3967C89.6401 48.9726 89.4213 50.6458 88.618 52.0506C87.8146 53.4555 86.4921 54.4776 84.9396 54.8935ZM6.823 22.6018C6.01947 22.8148 5.33463 23.3427 4.91915 24.0693C4.50366 24.7959 4.39156 25.6616 4.6075 26.4761L15.347 66.9838C15.5629 67.7983 16.0892 68.4948 16.8101 68.9201C17.531 69.3454 18.3874 69.4647 19.1909 69.2517L84.1783 52.022C84.9819 51.809 85.6667 51.2811 86.0822 50.5546C86.4977 49.828 86.6098 48.9622 86.3938 48.1477L75.6543 7.64004C75.4384 6.82554 74.9121 6.12902 74.1912 5.70371C73.4703 5.27841 72.6139 5.15916 71.8104 5.37219L6.823 22.6018Z" fill="#575757"/>
<path d="M41.8656 48.1857C41.6051 48.2539 41.3313 48.2529 41.0704 48.1829C40.8277 48.1033 40.6075 47.9654 40.4286 47.7808C40.2497 47.5963 40.1176 47.3709 40.0437 47.1239L35.8994 31.492C35.8412 31.2409 35.8443 30.9796 35.9082 30.7307C35.9722 30.4818 36.0951 30.2528 36.2665 30.0635C36.4483 29.8827 36.6738 29.7532 36.9208 29.6878C37.1678 29.6223 37.4278 29.623 37.6753 29.69L54.0932 33.7025C54.354 33.765 54.5935 33.898 54.7861 34.0872C54.9787 34.2764 55.1172 34.5148 55.1866 34.7767C55.2561 35.0387 55.2539 35.3143 55.1803 35.5741C55.1067 35.8339 54.9646 36.0681 54.769 36.2515L42.5328 47.8281C42.3486 48.0088 42.1173 48.1328 41.8656 48.1857ZM39.4057 33.1591L42.2555 43.9079L50.7185 35.8956L39.4057 33.1591Z" fill="#575757"/>
<path d="M39.689 80.4498L28.0397 83.5383C27.6756 83.5952 27.3027 83.5134 26.993 83.3086C26.6834 83.1038 26.459 82.7907 26.3633 82.4296C26.2676 82.0686 26.3073 81.6854 26.4749 81.3542C26.6424 81.0229 26.9258 80.767 27.2703 80.6361L38.9195 77.5476C39.1143 77.4736 39.3226 77.4419 39.5309 77.4545C39.7392 77.4671 39.9428 77.5238 40.1286 77.621C40.3144 77.7181 40.4783 77.8535 40.6096 78.0184C40.7408 78.1832 40.8367 78.3739 40.8908 78.5781C40.9449 78.7823 40.9562 78.9954 40.9238 79.2036C40.8914 79.4119 40.8162 79.6107 40.7029 79.7871C40.5896 79.9635 40.4408 80.1137 40.2662 80.2278C40.0915 80.342 39.8949 80.4176 39.689 80.4498Z" fill="#575757"/>
<path d="M43.1783 82.4982C42.3507 82.7176 41.4757 82.6831 40.6642 82.3991C39.8526 82.1151 39.141 81.5944 38.6195 80.9028C38.0979 80.2113 37.7899 79.3801 37.7344 78.5145C37.6788 77.6488 37.8784 76.7877 38.3076 76.0402C38.7369 75.2927 39.3766 74.6924 40.1457 74.3153C40.9149 73.9382 41.7789 73.8014 42.6282 73.922C43.4776 74.0427 44.2742 74.4154 44.9171 74.9931C45.56 75.5707 46.0203 76.3273 46.2397 77.1669C46.533 78.2894 46.3755 79.4806 45.8017 80.4799C45.2279 81.4791 44.2845 82.2049 43.1783 82.4982ZM41.7005 76.9241C41.4354 76.9911 41.1965 77.1366 41.0141 77.3418C40.8318 77.5471 40.7142 77.803 40.6764 78.077C40.6385 78.3509 40.6822 78.6307 40.8016 78.8806C40.9211 79.1306 41.1111 79.3395 41.3474 79.4807C41.5837 79.622 41.8558 79.6892 42.1289 79.674C42.4021 79.6587 42.664 79.5616 42.8815 79.395C43.099 79.2283 43.2621 78.9997 43.3503 78.7382C43.4385 78.4766 43.4476 78.1939 43.3766 77.926C43.3318 77.7487 43.2527 77.582 43.1439 77.4355C43.0351 77.289 42.8988 77.1655 42.7429 77.0723C42.587 76.9791 42.4146 76.9181 42.2356 76.8926C42.0567 76.8672 41.8748 76.8779 41.7005 76.9241Z" fill="#575757"/>
<path d="M85.7237 68.2445L45.1861 78.9919C44.822 79.0489 44.4491 78.967 44.1394 78.7622C43.8298 78.5575 43.6054 78.2443 43.5097 77.8833C43.414 77.5223 43.4537 77.1391 43.6213 76.8078C43.7888 76.4765 44.0722 76.2207 44.4167 76.0897L84.9542 65.3423C85.3183 65.2854 85.6913 65.3672 86.0009 65.572C86.3106 65.7768 86.5349 66.0899 86.6306 66.451C86.7263 66.812 86.6866 67.1952 86.5191 67.5265C86.3516 67.8577 86.0681 68.1136 85.7237 68.2445Z" fill="#575757"/>
<path d="M81.6004 49.0395L68.3908 52.5417C68.196 52.6157 67.9877 52.6474 67.7794 52.6348C67.5712 52.6222 67.3675 52.5655 67.1817 52.4683C66.9959 52.3712 66.8321 52.2358 66.7008 52.071C66.5695 51.9061 66.4737 51.7154 66.4195 51.5112C66.3654 51.307 66.3542 51.0939 66.3865 50.8857C66.4189 50.6774 66.4942 50.4786 66.6074 50.3022C66.7207 50.1258 66.8695 49.9756 67.0442 49.8615C67.2188 49.7473 67.4155 49.6717 67.6214 49.6395L79.4676 46.4988L70.4542 12.5019L58.6686 15.6265C58.4738 15.7005 58.2655 15.7322 58.0573 15.7196C57.849 15.707 57.6454 15.6503 57.4596 15.5531C57.2737 15.456 57.1099 15.3206 56.9786 15.1558C56.8473 14.9909 56.7515 14.8002 56.6974 14.596C56.6432 14.3918 56.6319 14.1787 56.6643 13.9705C56.6967 13.7622 56.772 13.5634 56.8853 13.387C56.9986 13.2106 57.1473 13.0604 57.322 12.9463C57.4967 12.8321 57.6933 12.7565 57.8992 12.7243L71.1088 9.22215C71.4951 9.11897 71.9068 9.16938 72.2595 9.36305C72.6123 9.55672 72.8794 9.879 73.0063 10.2639L82.7769 47.117C82.8272 47.3223 82.8365 47.5355 82.8044 47.744C82.7722 47.9525 82.6992 48.1521 82.5896 48.3312C82.4801 48.5103 82.3361 48.6651 82.1663 48.7868C81.9964 48.9084 81.804 48.9943 81.6004 49.0395Z" fill="#575757"/>
<path d="M31.9928 62.1927L19.8739 65.4057C19.6792 65.4578 19.4756 65.4688 19.2759 65.438C19.0762 65.4072 18.8846 65.3353 18.7129 65.2267C18.5413 65.1182 18.3933 64.9753 18.278 64.8069C18.1628 64.6384 18.0827 64.4481 18.0429 64.2477L8.2723 27.3946C8.17081 27.0118 8.22351 26.6049 8.41879 26.2634C8.61407 25.9219 8.93593 25.6738 9.31359 25.5737L24.0986 21.6538C24.4627 21.5969 24.8356 21.6787 25.1452 21.8835C25.4549 22.0883 25.6793 22.4015 25.775 22.7625C25.8707 23.1235 25.8309 23.5067 25.6634 23.838C25.4959 24.1693 25.2125 24.4251 24.8681 24.556L11.5222 28.0943L20.5355 62.0913L31.1395 59.2799C31.5036 59.223 31.8765 59.3048 32.1861 59.5096C32.4958 59.7144 32.7202 60.0275 32.8159 60.3885C32.9116 60.7495 32.8718 61.1328 32.7043 61.464C32.5368 61.7953 32.2534 62.0512 31.9089 62.1821L31.9928 62.1927Z" fill="#575757"/>
<path d="M49.6908 55.5112C46.1704 56.4445 42.4485 56.2987 38.9957 55.0922C35.543 53.8857 32.5145 51.6727 30.2932 48.733C28.0719 45.7933 26.7576 42.259 26.5165 38.577C26.2754 34.895 27.1183 31.2306 28.9387 28.0473C30.759 24.8641 33.475 22.3048 36.7432 20.6932C40.0114 19.0816 43.685 18.4901 47.2995 18.9934C50.914 19.4967 54.3071 21.0723 57.0496 23.5208C59.7921 25.9694 61.7608 29.181 62.7069 32.7495C63.9712 37.5345 63.3107 42.6189 60.8703 46.8864C58.43 51.154 54.4093 54.2559 49.6908 55.5112ZM40.8933 22.3281C37.9391 23.1113 35.2867 24.7649 33.2714 27.0798C31.2562 29.3946 29.9687 32.2668 29.5717 35.3331C29.1746 38.3994 29.686 41.522 31.0409 44.3062C32.3959 47.0904 34.5337 49.411 37.184 50.9746C39.8343 52.5382 42.878 53.2746 45.9303 53.0906C48.9826 52.9067 51.9063 51.8106 54.3318 49.9411C56.7573 48.0715 58.5755 45.5125 59.5566 42.5875C60.5378 39.6626 60.6377 36.5031 59.8438 33.5086C58.7755 29.4954 56.1802 26.0642 52.6274 23.9681C49.0746 21.872 44.8545 21.2822 40.8933 22.3281Z" fill="#575757"/>
</g>
<defs>
<clipPath id="clip0_302_418">
<rect width="79.3" height="70.2" fill="white" transform="translate(0.199219 21.2846) rotate(-14.8488)"/>
</clipPath>
</defs>
</svg>
