<svg width="113" height="115" viewBox="0 0 113 115" fill="none" xmlns="http://www.w3.org/2000/svg">
<path d="M12.1462 89.5248C8.69694 89.5248 5.34487 89.5248 1.89563 89.5248C1.6451 89.5342 1.39531 89.492 1.1618 89.4008C0.92829 89.3095 0.716065 89.1712 0.538336 88.9944C0.360606 88.8176 0.221176 88.606 0.128728 88.373C0.0362795 88.14 -0.00720739 87.8904 0.000972662 87.6398C0.000972662 87.4358 0.000972662 87.2317 0.000972662 87.0277V38.9813H112.951C112.951 39.3602 113 39.7586 113 40.1472C113 55.6931 113 71.2389 113 86.7848C113 88.9515 112.407 89.5442 110.27 89.5442C107.355 89.5442 104.362 89.5442 101.35 89.5442C101.29 86.5264 100.105 83.6399 98.0274 81.4506C96.4664 79.7847 94.4314 78.6383 92.1977 78.1666C91.8857 78.1358 91.5936 77.9997 91.3693 77.7807C91.145 77.5617 91.002 77.2729 90.9637 76.9618C88.5347 67.8869 80.6646 61.892 71.3468 62.3875C70.3856 62.476 69.4167 62.3472 68.512 62.0109C67.6072 61.6745 66.7895 61.1391 66.1195 60.4443C54.2561 49.6593 35.1541 54.1676 29.0426 69.1208C28.7608 69.7912 28.5179 70.0924 27.6921 70.0924C25.3344 70.0292 22.9933 70.5033 20.846 71.4787C18.6986 72.4541 16.8014 73.9053 15.2979 75.7224C13.7944 77.5396 12.724 79.675 12.1679 81.9669C11.6117 84.2589 11.5844 86.6474 12.0879 88.9515C12.1175 89.1414 12.1369 89.3328 12.1462 89.5248Z" fill="#575757"/>
<path d="M30.9761 74.4356C32.3169 71.6762 33.24 68.9265 34.8626 66.6627C36.5903 64.1743 38.8802 62.1282 41.5466 60.6903C44.2129 59.2524 47.1805 58.4631 50.2089 58.3864C53.2373 58.3098 56.2411 58.9479 58.9767 60.2491C61.7124 61.5503 64.1029 63.4779 65.9543 65.8756C66.1854 66.2563 66.5402 66.5461 66.9594 66.6964C67.3786 66.8467 67.8367 66.8486 68.257 66.7015C77.8858 64.3599 86.64 70.6754 87.6894 80.6151C87.6894 80.9357 87.7574 81.2563 87.806 81.7616C88.4861 81.7616 89.1662 81.7616 89.8366 81.7616C91.8477 81.8041 93.764 82.6245 95.1827 84.0505C96.6015 85.4765 97.4122 87.3969 97.4444 89.4082C97.4967 91.4437 96.7413 93.4171 95.343 94.8973C93.9448 96.3774 92.0175 97.2439 89.9824 97.3074C81.5876 97.3852 73.1831 97.3074 64.7884 97.3074C64.6562 97.2917 64.5259 97.2624 64.3997 97.22V93.421C65.2645 93.421 66.1389 93.421 67.0134 93.421C67.9132 93.4506 68.804 93.2345 69.5903 92.7959C70.3765 92.3573 71.0284 91.7128 71.4759 90.9316C71.9234 90.1505 72.1497 89.2621 72.1303 88.3621C72.111 87.462 71.8469 86.5842 71.3662 85.8229C67.9979 80.0515 64.5584 74.3158 61.0476 68.6156C60.5776 67.8393 59.9153 67.1974 59.1247 66.7518C58.3341 66.3063 57.442 66.0722 56.5345 66.0722C55.627 66.0722 54.7348 66.3063 53.9442 66.7518C53.1536 67.1974 52.4913 67.8393 52.0213 68.6156C48.5429 74.2898 45.1196 79.99 41.7513 85.7161C39.6235 89.3402 42.004 93.353 46.2305 93.3918C47.0272 93.3918 47.8337 93.3918 48.6887 93.3918V97.1908C48.4676 97.2382 48.2437 97.2706 48.0183 97.288C41.0421 97.288 34.0659 97.3463 27.0799 97.288C24.0648 97.2333 21.1881 96.0125 19.054 93.882C16.9198 91.7514 15.6941 88.8768 15.6343 85.8618C15.5177 78.1763 22.3384 72.7061 30.1211 74.2024L30.9761 74.4356Z" fill="#575757"/>
<path d="M15.6348 27.1956V7.81183H105.13V19.4032H103.828C96.8522 19.4032 89.876 19.4032 82.8998 19.4032C81.6093 19.3029 80.3203 19.6137 79.2172 20.2909C78.1142 20.968 77.2537 21.977 76.7592 23.1731L76.7106 23.28C76.0305 24.5722 75.6515 26.3503 74.5828 27.0013C73.514 27.6522 71.7553 27.1956 70.2979 27.1956C52.5238 27.1956 34.7529 27.1956 16.9853 27.1956H15.6348ZM19.5212 15.4196H93.471V11.6789H19.5504L19.5212 15.4196ZM73.9318 19.4907H27.2942V23.2411H73.9318V19.4907ZM97.4449 11.64V15.4196H101.156V11.64H97.4449ZM23.3203 23.28V19.4907H19.599V23.28H23.3203Z" fill="#575757"/>
<path d="M0.00195312 34.9102C0.00195312 34.2301 0.00195312 33.6277 0.00195312 33.0253C0.00195312 32.5099 0.206686 32.0157 0.571113 31.6512C0.93554 31.2868 1.42981 31.0821 1.94519 31.0821C2.35327 31.0821 2.75163 31.0821 3.15971 31.0821C27.3789 31.0821 51.598 31.0821 75.8172 31.0821C76.2254 31.1486 76.6439 31.0691 76.9993 30.8577C77.3547 30.6462 77.6242 30.3163 77.7604 29.9258C78.528 28.1478 79.4899 26.4475 80.3352 24.6888C80.5188 24.2379 80.8405 23.8568 81.2543 23.6001C81.668 23.3435 82.1524 23.2246 82.638 23.2606C91.9752 23.2606 101.303 23.2606 110.64 23.2606C112.233 23.2606 112.952 23.9698 112.962 25.5439C112.962 28.6239 112.962 31.7039 112.962 34.8617L0.00195312 34.9102ZM81.9092 27.2442V31.0335H85.6403V27.2442H81.9092ZM89.6822 27.2442V31.0043H93.4132V27.2539L89.6822 27.2442ZM101.244 27.2442H97.4745V30.9946H101.244V27.2442ZM105.257 30.9946H108.998V27.2636H105.257V30.9946Z" fill="#575757"/>
<path d="M60.4263 89.5345V114.797H52.6533V89.5345C50.5449 89.5345 48.5725 89.5345 46.5904 89.5345C44.8513 89.5345 44.4335 88.8349 45.3079 87.3775C48.5466 81.9494 51.7854 76.5278 55.0241 71.1126C55.9374 69.5969 57.0548 69.5969 57.9389 71.1126C61.1777 76.5213 64.4164 81.9429 67.6551 87.3775C68.5004 88.7863 68.0923 89.515 66.4697 89.5248C64.5654 89.5442 62.5833 89.5345 60.4263 89.5345Z" fill="#575757"/>
<path d="M11.6605 3.77959V27.0984H7.90039V0H97.3669V3.77959H11.6605Z" fill="#575757"/>
</svg>
