<svg width="142" height="130" viewBox="0 0 142 130" fill="none" xmlns="http://www.w3.org/2000/svg">
<g clip-path="url(#clip0_121_714)">
<path d="M142 84.5671C141.897 84.7611 141.81 84.9631 141.74 85.171C140.334 90.908 135.812 94.5174 129.919 94.5385C122.613 94.5385 115.313 94.5385 108.007 94.5385C83.971 94.5385 59.9328 94.5385 35.8922 94.5385C30.0063 94.5385 25.2526 90.9291 23.9376 85.487C23.7012 84.4527 23.5832 83.3949 23.586 82.3341C23.586 58.9786 23.586 35.6208 23.586 12.2606C23.586 6.11627 27.3974 1.37637 33.1849 0.224744C34.2792 0.0453927 35.3887 -0.0251862 36.497 0.0140683C67.3306 0.0140683 98.1665 0.0140683 129.005 0.0140683C136.037 0.0140683 139.989 3.08272 141.81 9.845C141.81 9.92926 141.916 9.99246 141.972 10.0627L142 84.5671ZM29.5703 78.0927L30.0134 78.2964C30.365 77.875 30.7166 77.4116 31.0752 77.0254C38.1355 69.9658 45.1957 62.9133 52.256 55.8678C56.4753 51.6545 61.7916 51.6545 65.9757 55.8327L72.8461 62.6862C73.1204 62.9601 73.4368 63.2059 73.7673 63.4938C74.1682 63.0303 74.5127 62.6582 74.8292 62.2719C81.9668 53.7261 89.0622 45.1591 96.2491 36.6624C97.2704 35.4192 98.5304 34.3925 99.955 33.6429C103.809 31.761 107.754 32.8634 110.841 36.4517L134.841 64.4137C135.172 64.8069 135.545 65.1721 136.107 65.8181V12.7732C136.107 8.18077 133.805 5.88687 129.202 5.89156C98.2603 5.89156 67.3189 5.92668 36.4196 5.83539C32.7278 5.83539 29.493 8.13161 29.5141 12.7873C29.6407 34.0642 29.5703 55.3482 29.5703 76.6251V78.0927ZM30.5478 85.9645C31.1314 86.8343 31.93 87.5388 32.8663 88.01C33.8026 88.4812 34.8449 88.703 35.8922 88.6539H129.377C133.688 88.6539 136.086 86.2664 136.107 81.983C136.107 80.094 136.192 78.191 136.065 76.3091C136.018 75.4628 135.717 74.6503 135.2 73.9778C125.618 62.7424 116.007 51.5188 106.368 40.3068C104.47 38.0949 102.662 38.1581 100.743 40.4473C92.7729 50.0254 84.7867 59.6012 76.7841 69.1746C74.8995 71.4287 73.268 71.4919 71.2217 69.4204C68.1135 66.3213 65.0076 63.2199 61.9041 60.1162C59.8789 58.0938 58.388 58.0938 56.3769 60.1162L31.6589 84.7988C31.3073 85.1569 30.9627 85.5291 30.5478 85.9645Z" fill="#838383"/>
<path d="M101.496 130.007C95.4481 128.364 89.4075 126.707 83.3528 125.092L9.26921 105.303C2.32849 103.442 -1.36338 97.1787 0.472005 90.269C4.18966 76.2857 7.94014 62.3094 11.7234 48.3401C12.279 46.2826 13.5588 45.2785 15.2395 45.5313C17.0608 45.8121 18.0524 47.5115 17.539 49.5128C15.7341 56.3336 13.9128 63.145 12.075 69.9471C10.1482 77.1564 8.21439 84.3681 6.27352 91.5821C5.21167 95.5566 6.91345 98.5129 10.9077 99.5803L100.919 123.652C105.335 124.832 108.092 123.231 109.273 118.849C110.68 113.596 112.086 108.316 113.493 103.098C114.076 100.992 115.729 99.9805 117.522 100.655C119.076 101.237 119.723 102.761 119.21 104.685C118.106 108.828 116.973 112.957 115.855 117.093C115.49 118.428 115.152 119.776 114.772 121.096C114.236 123.238 113.106 125.185 111.511 126.714C109.916 128.243 107.922 129.292 105.757 129.74C105.545 129.81 105.341 129.899 105.145 130.007H101.496Z" fill="#838383"/>
<path d="M53.1761 17.7448C55.515 17.742 57.8021 18.4322 59.7481 19.7278C61.694 21.0235 63.2113 22.8665 64.108 25.0236C65.0047 27.1807 65.2404 29.5549 64.7853 31.8458C64.3302 34.1367 63.2047 36.2413 61.5514 37.8933C59.898 39.5452 57.7911 40.6703 55.4972 41.1261C53.2033 41.5819 50.8255 41.348 48.6648 40.4539C46.5041 39.5598 44.6576 38.0457 43.3589 36.1033C42.0602 34.1609 41.3678 31.8775 41.3691 29.5419C41.3747 26.4161 42.6202 23.4197 44.8331 21.2087C47.0459 18.9978 50.0458 17.7522 53.1761 17.7448ZM59.1042 29.549C59.0986 28.3886 58.7493 27.2559 58.1001 26.2935C57.4509 25.3311 56.5309 24.5821 55.4562 24.141C54.3814 23.6998 53.1999 23.5862 52.0606 23.8144C50.9213 24.0427 49.8751 24.6026 49.0539 25.4235C48.2327 26.2445 47.6733 27.2899 47.4461 28.4278C47.2189 29.5658 47.3341 30.7455 47.7771 31.8181C48.2202 32.8908 48.9713 33.8086 49.9359 34.4557C50.9004 35.1028 52.0352 35.4504 53.1972 35.4545C53.9738 35.4555 54.7429 35.3033 55.4604 35.0068C56.178 34.7102 56.8298 34.2751 57.3786 33.7265C57.9274 33.1778 58.3624 32.5264 58.6585 31.8095C58.9546 31.0926 59.1061 30.3244 59.1042 29.549Z" fill="#838383"/>
</g>
<defs>
<clipPath id="clip0_121_714">
<rect width="142" height="130" fill="white"/>
</clipPath>
</defs>
</svg>
