<svg width="18" height="13" viewBox="0 0 18 13" fill="none" xmlns="http://www.w3.org/2000/svg">
<path d="M0 8.90624C0.026742 8.74639 0.0481359 8.58595 0.0820091 8.42787C0.292379 7.45698 0.81058 6.689 1.64434 6.13867C1.77091 6.05491 1.8036 5.98885 1.76319 5.83372C1.52548 4.91119 1.72456 4.08304 2.40975 3.41238C3.09494 2.74173 3.92454 2.54826 4.85575 2.79304L4.97461 2.82431C5.22598 2.46155 5.43635 2.08699 5.71447 1.77084C6.92439 0.391179 8.46117 -0.219905 10.2832 0.0708903C12.3073 0.394128 13.6366 1.58975 14.2992 3.50971C14.3821 3.78208 14.4417 4.06088 14.4775 4.34317C14.4787 4.38551 14.4956 4.42593 14.525 4.45663C14.5544 4.48734 14.5942 4.50617 14.6368 4.5095C15.621 4.73547 16.495 5.295 17.1082 6.09171C17.7215 6.88843 18.0357 7.87248 17.9968 8.87439C17.9631 9.77251 17.6475 10.6377 17.094 11.3491C16.5406 12.0604 15.7771 12.5823 14.9101 12.8417C14.5845 12.936 14.2474 12.9858 13.9082 12.9898C12.7482 13.0075 11.5906 12.9968 10.4282 12.9968H10.2113V9.13156C10.2707 9.12861 10.3301 9.12271 10.3836 9.12271C10.6998 9.12271 11.0165 9.11858 11.3344 9.12271C11.5359 9.12566 11.7249 9.11387 11.833 8.90919C11.9412 8.70451 11.8414 8.54289 11.7231 8.38186C11.2873 7.78965 10.8549 7.19627 10.4258 6.6017C10.076 6.12117 9.72596 5.64064 9.37574 5.16011C9.13804 4.83864 8.85873 4.83805 8.624 5.16011C7.83481 6.24307 7.04622 7.32682 6.25822 8.41136C6.24099 8.43436 6.22375 8.45795 6.20711 8.48214C6.11381 8.61721 6.08826 8.75996 6.1667 8.90919C6.20159 8.97711 6.25574 9.03341 6.32248 9.07114C6.38922 9.10888 6.46563 9.1264 6.54228 9.12153C6.95114 9.12153 7.36058 9.12153 7.7843 9.12153V12.9963H7.57155C6.29447 12.9963 5.0162 12.9909 3.74031 12.9963C2.46442 13.0016 1.49399 12.4335 0.754719 11.4385C0.360143 10.9067 0.11154 10.2823 0.0332788 9.62644C0.0255845 9.59391 0.0144291 9.56227 0 9.53207V8.90624Z" fill="white"/>
</svg>
