<svg width="42" height="30" viewBox="0 0 42 30" fill="none" xmlns="http://www.w3.org/2000/svg">
<path d="M0 20.5529C0.0612535 20.184 0.110257 19.8137 0.187845 19.4489C0.669706 17.2084 1.85666 15.4361 3.76641 14.1662C4.05635 13.9729 4.13121 13.8204 4.03865 13.4624C3.49418 11.3335 3.95017 9.42241 5.51963 7.87473C7.08908 6.32706 8.9893 5.88059 11.1223 6.44548L11.3945 6.51763C11.9703 5.6805 12.4522 4.81614 13.0892 4.08654C15.8606 0.90272 19.3806 -0.507474 23.554 0.163593C28.1902 0.909525 31.2352 3.66866 32.7529 8.09933C32.9427 8.72788 33.0793 9.37127 33.1613 10.0227C33.164 10.1204 33.2028 10.2137 33.2701 10.2845C33.3375 10.3554 33.4286 10.3989 33.5261 10.4065C35.7804 10.928 37.7823 12.2192 39.1871 14.0578C40.5919 15.8964 41.3116 18.1673 41.2223 20.4794C41.1451 22.5519 40.4222 24.5486 39.1546 26.1901C37.8869 27.8317 36.138 29.036 34.1522 29.6347C33.4063 29.8523 32.6342 29.9673 31.8573 29.9764C29.2002 30.0172 26.5486 29.9927 23.8862 29.9927H23.3893V21.0728C23.5254 21.066 23.6616 21.0524 23.7841 21.0524C24.5082 21.0524 25.2337 21.0429 25.962 21.0524C26.4234 21.0592 26.8563 21.032 27.104 20.5597C27.3517 20.0873 27.1231 19.7144 26.8522 19.3428C25.854 17.9761 24.8635 16.6068 23.8807 15.2347C23.0794 14.1258 22.2777 13.0169 21.4755 11.9079C20.931 11.1661 20.2913 11.1647 19.7536 11.9079C17.9459 14.4071 16.1396 16.908 14.3347 19.4108C14.2952 19.4639 14.2557 19.5184 14.2176 19.5742C14.0039 19.8859 13.9454 20.2153 14.1251 20.5597C14.205 20.7164 14.329 20.8463 14.4819 20.9334C14.6347 21.0205 14.8098 21.0609 14.9853 21.0497C15.9218 21.0497 16.8597 21.0497 17.8302 21.0497V29.9914H17.3429C14.4177 29.9914 11.4898 29.9791 8.56733 29.9914C5.64485 30.0036 3.42203 28.6928 1.72871 26.3965C0.824921 25.1693 0.255488 23.7284 0.0762263 22.2149C0.0586023 22.1398 0.0330504 22.0668 0 21.9971V20.5529Z" fill="white"/>
</svg>
